P2
7 9
15
15 15 15 10 15 15 15
15 15 10 10 10 15 15
15 10 10 10 10 10 15
10 10 10 10 10 10 10
15 15 15 10 15 15 15
15 15 15 04 15 15 15
00 00 00 00 00 00 00
15 00 00 00 00 00 15
15 15 00 00 00 15 15
