P2 
9 6
5
5 5 5 5 3 3 3 5 5
5 5 5 3 3 3 3 3 5
5 5 1 3 0 3 3 3 3
1 1 1 3 3 3 3 3 3
5 1 1 3 3 3 3 3 5
5 5 5 5 3 3 3 5 5